<?xml version="1.0" encoding="utf-8"?>
<!-- Generator: Adobe Illustrator 18.0.0, SVG Export Plug-In . SVG Version: 6.00 Build 0)  -->
<!DOCTYPE svg PUBLIC "-//W3C//DTD SVG 1.1//EN" "http://www.w3.org/Graphics/SVG/1.1/DTD/svg11.dtd">
<svg xmlns="http://www.w3.org/2000/svg" xmlns:xlink="http://www.w3.org/1999/xlink" version="1.1" id="Слой_2" x="0px" y="0px" viewBox="0 415 1590 746.8" enable-background="new 0 415 1590 746.8" xml:space="preserve">
<path fill="#FD8C25" stroke="" stroke-width="2" stroke-miterlimit="10" d="M1589.3,618.7v-1.5c-6.5-3.2-12.9-13.2-19.1-18.3  c-7-5.7-14.3-9.7-20.8-16.4c-15.1-16-33.5-30.2-53.4-40.1c-9-4.5-19.5-10.6-26.9-17.2c-6.6-6-11.9-14.2-19.2-19.3  c-17-12.1-38.4-20.5-57.1-29c-7.8-3.6-17.5-3.8-24.6-8.2c-4-2.4-4.9-6.5-9.3-7.3c-3.7-0.7-9.4,4.5-14.7,2.6  c-10.9-3.7-11.9-13.8-25.7-11.5c-5.2,0.8-8.1,2.8-14.3,2.9c-6.5,0-11,1.2-17.1,2.9c-9.9,2.8-16,9.3-25.7,13.9  c-4.4,2.1-33.7,30.2-40.1,35.1c-6.2,4.8-12.2,9.7-24.6,16.6c-10.6,4.6-18.9,10.6-30.2,12.9c-6.8,1.3-9.7,3.3-15.5,6.1  c-4.4,2-9.8,4.6-14.3,1.2c-5.4,5.2-5.3,5.4-11.8,3.4c-4.2-1.3-11.1-3.2-15.4-4.9c-4.8-2-9.8-6.6-14.4-9.4c-6.9-4.2-4.9-4.6-12.9-1.5  c-6,2.4-11.5,5.4-17.2,8.5c-5,2.7-8.7,3.4-14.3,5.4c-5,1.7-7.3,5.6-11.8,8.2c-5.8,3.4-6.9,2.7-13.6,1.5c-11.5-2.1-20.7,5.6-31.9,4.6  c-10.7-0.8-21.3-6.2-33-4.4c-11.5,1.9-22,6.5-34.3,7.6c-11.3,0.9-23.7,2.3-34.4,5c-5.8,1.6-11,2.7-16.8,3.6  c-1.5,0.3-5.8,0.5-7.4,1.1c-5.6,2-3.2,0.4-7.2,4.4c-5.6,5.4-3.3,5.6-11.5,7.2c-5.7,1.1-12.6,2.4-18.7,1.5  c-10.2-1.6-19.9-5.6-29-11.1c-10.1-6.2-19.6-5.8-31.1-7.6c-21.6-3-44.8-13.1-64.8-22.5c-8.6-4.1-17.8-6.8-25.8-11.5  c-8.2-4.8-15-10.9-22.9-15.8c-7.6-4.8-16.8-7.7-24-13.5c-8.9-7.3-14-13.5-24.5-18.7c-17.5-8.7-33.1-23.6-47.6-36.6  c-15.1-13.5-30.3-28.8-51.5-19.3c-9,4-17,11.4-26.9,14.7c-10.9,3.6-18.3,8.6-28.4,13.2c-14.7,6.8-31,11.9-45.8,20  c-13.6,7.6-27.2,15.9-41.9,21.5c-15,5.6-32.5,9.5-48.8,11.1c-8.7,0.9-13.4,1.6-21.5-3.2c-3.2-1.9-5.2-4.4-8.3-5  c-2.3-0.5-9.7,1.2-13,0.9c0.7-11-13.5-14.7-21.7-17c-11-2.9-17.2-8.1-29.8-7c-1.2,3.4-3.3,11.7-7.3,12.7c-6.9,2-5.7-6-9-8.3  c-10.9-8-22.4,8.6-28.1,14.4c-6.8,7-18.9,8.2-27.6,9.5c-5.6,0.9-11.1,2.6-16.2,0.1c-4.8-2.4-8.2-7.4-14-9.8  C81.4,481.1,42,462.6,0,461v157.7v42.9v500.2h1590V618.7H1589.3z M175.7,505.7c2.7-1.9,4.8-3.8,7-6.1c3.8-4,8.6-7.6,12.2-11.8  c-3,6.2-2.3,13.1-6.2,19.7c10.9,0.9,10.1-7.7,17.5-12.7c1.2,6,9.4-0.8,12.2,0.1c-2.1,4.1-12.1,11.4-10.5,16.3  c5.6-2,8.2-7.2,12.1-11.3c2.8-3.2,8.7-4.8,9.4-9.3c2.4-0.8,5.2-1.7,7.8-1.6c2.8,0.3,2.8,1.3,5,2.3c3.8,1.5,7.4,0.8,10.6,4.5  c2.9,3.3,4.6,7.3,8.6,10.1c4.2,3,9,3.6,13.8,4.8c8.1,2.1,18.7-2.6,26,5.6c1.5,1.7,2.8,3.2,4.1,4.6c2,2.3,2.3,1.5,2.7,4.6  c0.3,2.7-2.1,2,0.3,5c0.8,0.9,3.2,1.1,4.2,2.8c0-0.3,0-0.7,0-0.9c0.1,2.8,2.9,9.5,5,11.4c2.1,1.9,6.2,1.6,8.6,2.8  c2,0.9,3.6,3,4.9,4.6c0.4-4-1.2-7-1.2-10.5c0.9,0.8,2.3,1.7,3.3,2.5c-0.7-1.6-1.1-3.7-2-5.3c5.2,3.4,10.2,5.8,14.7,10.1  c3.8,3.7,7.3,8.2,12.1,10.6c-0.9-3.4-2.5-7.8-5.3-10.3c-2.3-2.1-6.6-2.9-9-5.3c-2.5-2.7-3.3-6.2-4.8-9.5c-1.3-2.6-2.3-8.7-5.7-8.7  c3.7-4.4,11.4-5.4,16.3-9.4c2.9-2.3,3.7-3.7,7.3-4.9c4.1-1.3,9-1.9,13-3.7c4.2-2,6.4-5.8,10.2-8.2c4.1-2.6,8.9-4.5,13.2-6.8  c6-3.2,9.1-9.3,15.9-11.3c-4.1,3.3-4.1,8.5-7.3,12.6c-2.4,3.2-7.6,5.6-7.8,9.9c8.6-8.3,19.3-15.9,27.2-24.9  c7.2-8.3,16.4-10.5,25.8-15.6c-0.3,4-6.6,6.9-6.2,10.6c4.5,0.1,12.5-8,16.6-10.5c4.9-3,8.2-4.9,14-4.4c-0.3,4.1,1.3,8.6,2.9,11.5  c1.2,2,2.6,1.2,2.9,4.1c0.1,2.1-1.7,3.4-1.3,5.6c1.2-0.1,2.8,0.4,4.1,0.3c2.3,5.4-1.9,6.2-4.1,10.5c5.7,0.5,12.2-3.6,17.9-4.2  c4.6-0.5,9.7-1.1,14.3-0.7c8.5,0.7,18,1.5,26.5,2.1c6.5,0.5,11.1,0.4,17.2,3c2.5,1.1,5.7,2.5,7.7,4.4c1.9,1.7,2,4.1,3.7,5.6  c4.4,3.6,15,1.1,20.1,0.7c7.2-0.5,9.8,1.1,15.8,4.1c2.1,1.2,6.4,2.5,8.6,2.4c2.9-0.3,4.4-2.3,7.2-1.5c4.8,1.3,8.5,6.2,13.6,7.7  c5.7,1.7,11.3,2.5,16.4,5c3.2,1.6,11.4,7.7,14.4,3.2c6.5,4.1,11.9,11.3,18.4,15.9c6.6,4.6,15,6.9,22.3,9.8c3.6,1.5,7,3.7,10.7,5  c3.6,1.2,7.6,1.9,10.6,4.5c1.5,1.2,1.9,3.4,3.7,4.2c1.7,0.7,4.6-0.3,6.5,0c4.2,0.5,6,4,9.9,4.5c1.3,3.8,7.6,6.9,7.2,10.5  c-2.5-1.5-4.9-1.6-7.9-0.1c-3.3,1.6-4.4,3.7-8.5,3c-2.8-0.4-4.5-2-8-1.5c-2.7,0.4-6.2,2.9-8.5,0.5c-1.6-1.6-0.1-5.7-1.7-7.6  c-0.8-0.9-6.5-2.8-7.6-2.1c-1.7,0.8-2,4.4-3.2,5.8c-4.1,5.2-4.5-0.3-9.1-0.4c-3,0-4.5,2.5-6.5,3.6c-1.9,1.1-6.9,0.7-7.8,3  c-0.5,1.6,2,4.6,3.4,5.4c5,2.8,14.7,0.5,20.1,0c6.5-0.7,12.7-2,19.3-2c4.1,0,13.9,3,14.4-3.4c3-0.3,7.2-0.7,9.8,0.8  c-1.7,13.5,17.2,3.2,17.9,10.5c-3.2,1.6-6.5,0.1-9.9,1.5c-4.1,1.5-7.2,2-11.4,2.4c0.3,2.5,2.4,5.6,1.3,8.5c-1.1,2.9-4.1,3.3-3.6,7.2  c0.4,3.3,3.6,4.4,6,6.2c2.5,2,2.8,3.2,4.1,5.8c2.4,4.5,5.2,9.3,10.7,10.1c5,0.7,2.7-1.3,5.7-3.8c2.4-1.9,5.3-0.7,7.8-2.1  c0.1-1.6,0.1-3.2,0.3-4.8c4.9-2.1,7.6-3.8,7-9.4c-0.4-4.8-1.3-10.1-2.9-14.8c-3-9.9-9-15-9.4-25.7c3,6.2,6.4,12.1,9.9,18.4  c2,3.4,4.5,6.4,5.8,9.9c1.6,4,2.3,8.1,3.7,12.1c1.5,0.4,2.8,0.3,3.8-0.5c-4.9-5.8-2.7-13.1-5.6-19.3c-1.6-3.3-5.2-5.6-7-8.6  c-1.6-2.5-2.5-5.4-4-7.9c6.9,4.8,18.7-1.1,20.4,10.1c0.7,4.5-0.5,8.9,2.3,12.7c1.3,1.7,3,2.4,4.1,4.5c1.1,2,0.4,4.1,2.8,4.9  c0.5-5.4-0.9-9.8-3.6-14c-2.4-3.7-4-9.8-2.1-14.3c1.7,5.2,6.5,5.8,10.9,6.2c4.5,0.4,8,2.3,12.3,3.4c4,1.1,9.4,1.3,13.4,1.6  c2.5,0.3,4.9,0,7.2-0.5c2.3-0.5,4.9-2.7,7.2-2.1c-0.5,0.9-0.3,1.7-0.5,2.6c4.5-2,11.8-6.9,14.2-11.3c2.3,1.3,1.5,3.3,2.1,5.7  c0.8,2.5,2.9,3.8,3.8,6.2c1.3,4-3.6,7.3-0.8,11.5c1.6,2.4,4.2,1.2,5.4,2.4c1.6,1.7,0.8,5,1.6,7.2c1.2,3.6,2.9,7.3,4.5,10.6  c1.9,4.1,3.2,8,4.1,12.3c1.1,4.5,3,7.3,3.6,12.2c0.9,9.7,2.5,18.7,7.3,27.2c6-0.4,0.9-13.4-0.1-16.4c-0.9-2.8-3.2-5-4.1-7.8  c-1.5-4.1,0.4-4,2-7.8c1.5-3.6,0-5.4-1.5-8.6c-1.6-3.7-1.3-5.2,0.5-8.7c2.3-4.5,2-4.6,0.9-9.7c-0.7-3.2-1.9-6.1-1.3-9.4  c2.8,0.8,4.2,3.8,6.5,5.4c2.8,2,6.9,2.9,9,6c2.3,3,2,5.4,5.2,8.1c2.9,2.4,4.9,3.2,4.5,7.6c2-0.3,3.8,0,4.4,2.1  c3-2.3,5.8-6.4,9.7-2.7c1.3,1.3,0.5,3.8,2.8,5c1.6,0.9,4,0.4,5.8,0.7c1.5,5.7,10.6-0.4,13.6-0.3c0-5.4-2.7-10.5-2.8-16.2  c0.1,1.5-0.4,2.7-0.9,4c-2-3.3-2.4-4.8-2.8-9.1c-1.7-0.1-3,0.5-4.8,0.5c0-2.8-0.3-9.1-4.2-7.7c-0.4,3-2.7,7.7-6.5,6.9  c-0.4-5.2-0.8-9.3-2.9-14c1.9-1.2,7.6-4.1,9.4-4.2c3.7-0.3,5.7,4.2,7.2-1.5c6.5-0.3,5.4,4.8,9.3,7.7c2.4,1.7,3.4-1.1,4.9,2.3  c0.7,1.6,0,5.4-0.1,7c-1.5-0.3-2.3,0.1-3.3-1.3c-1.2,4-0.5,8-0.8,12.2c-0.3,2.5-2.5,9.8-1.5,12.2c1.9,4.2,7.4,0.3,10.2-0.5  c5-1.5,3.6-2,5.7-6.5c5.3-1.2,6.8,5,10.6-2.3c0.4,0.5,2.4,1.5,2.6,2c2.4-2.9,0.5-9.8,0.9-13.5c0.4-4.6,1.5-8.9,1.5-13.6  c0-5,0.1-9.5-1.5-14.3c-1.5-4.2-4.1-6.5-7.3-9.9c-3.4,2.4-4.1,1.2-5.6-1.6c-1.7-3.2-0.3-3.3-4.9-4.4c-0.3-0.4-0.3-0.8,0-1.2  c0.7,0.1,1.9-0.3,2.7-0.3c0.1-3.2,3.2-11.8,7.8-6.9c1.1,1.1,0,5,0.7,6.5c0.7,1.3,3,2.8,4,4.8c0.9-1.9-2.4-4.8,0.3-7.3  c2.7-2.5,5.6,0.5,8.7-0.7c4.4-1.7,4-3.7,8.6-3.4c2.9,0.1,6.1,1.9,9.1,1.6c0.7,3,9.7,3.4,12.3,2.9c3.6-0.7,7.9-4,10.7,1.1  c1.1-1.3,2.7-2.7,4.1-3.2c2.4,3.3,5.6,6.5,7.6,9.9c2.8,4.8,4.9,10.6,6.9,15.8c1.7,4.5,3,10.9,5.2,15.1c2.3,4.6,6.2,6.9,5.8,12.9  c2.7-1.1,2.9-11.4,4.2-14c0.9,2,2.5,4.1,3.7,6.1c2.9-2.4,1.9-8.1,4.6-11.1c2.9,3.4,0.1,7.3,5.2,7c2.4-0.1,6.6-2.4,8.6-3.7  c2.4-1.6,3.7-3.3,6.4-4.4c3.8-1.3,4.6-1.5,7.4-4.9c3.2-4.1,7.8-10.5,12.7-12.3c1.5-0.5,3.4-0.3,4.8-0.9c1.1-0.4,2.8-1.6,3.8-2.1  c2.9-1.6,6-3.2,9.1-3.6c-0.3-4.9,5.2-6,4.5-9.8c1.3,0.4,2.8,1.3,4,2c0.7-4.6-4.6-4.5-7.6-5.8c-4.2-7.6,2.8-6.8,7.8-6.4  c2.9,0.3,14.2-0.9,11.5-4.9c1.6-0.1,6.5,0.7,7.7-0.3c2.1-1.9,0.9-5.3-2-5c1.1-0.7,3.2-0.7,4.8-0.7c2.4-3.2,0.7-4.8,4.4-6.4  c3.2-1.2,6.9,0,9.9-1.3c0.3,3.7,0.4,6.4-2.1,9c-3.8,4-9.9,6.4-14.4,10.1c-4.6,3.8-8.5,8.1-13.5,11.5c-9.9,6.9-20,13.9-30.1,20.8  c-9.8,6.8-18.8,14.7-29.4,20.4c-4.9,2.6-9.4,5.7-13.6,9.4c-2.9,2.5-10.6,5.7-10.9,9.7c-6.9,2.9-20,1.9-27.2-0.4  c-6.5-2.1-4.5,0.4-9.3,3.6c-3.6,2.4-8.5,2.1-12.2,4.9c-4.5,3.6-7.2,9.1-10.7,13.4c-3.7,4.4-11.3,6.6-16.4,11  c-2.7,2.3-4.4,5.7-7.8,6.9c-2.6,0.8-5.8-0.1-8.6,0.1c-3.4,0.4-5.3,1.7-8.1,3.4c-2.3,1.3-4.2,2-7,3.2c-4.6,2-7.9,5.8-12.3,7.6  c-6.9,2.8-15.6,2.3-22.1,6c-3.7,2.1-7.8,5.7-12.2,7.9c-4.2,2.1-8.2,4.8-10.2,9.9c-5.2-3.2-10.5-4.2-16.3-5.6  c-4.1-0.9-7.9-3-12.2-4.5c-9.4-3.2-19.5-7.3-28.1-11.8c-4.4-2.3-8.9-3.8-13.2-6.1c-4-2-5.3-4.2-8.2-7.6c-3.4-3.7-5.8-4.9-10.6-6  c-3.6-0.8-10.5-2-11.5-6.4c-8.5-2.8-17.5-5-25.7-8.7c-4.8-2.1-10.7-3.6-15-6.6c-2.1-1.6-2.8-4.2-4.6-6.1c-1.6-1.6-4.2-2.5-6.2-3.6  c-4.5-2.4-8.9-5.7-13.5-7.6c-6.6-2.5-13.9-2.3-20.1-6.5c-5-3.6-8.6-6-14.6-7.6c-5.8-1.5-12.2-1.1-16.8-5.8c-3.2-3.2-2.5-4.1-7.3-5  c-2.5-0.5-5.6-1.3-7.8-1.5c-3.6-0.3-14.4-1.1-15.1,3.3c-6.5-2.3-13.1-2.4-20.1-2.5c-6-0.1-12.3-2.8-17.9-4.4  c0.3-0.4,0.1-1.3,0.5-1.9c-3.2-2.8-7.7-1.5-11.4-2.5c-3.6-0.9-6.4-4.8-10.1-5.6c-3.3-0.8-8.5-0.1-11.5,0.8c-4,1.1-5,3.3-8.6,5  c-3.4,1.7-8.6,1.1-12.2,2.1c-3.6,1.1-6.5,3.8-10.1,4.9c-3.8,1.2-6.9,1.6-10.6,3.2c-3.8,1.9-6.4,1.7-10.9,2.1  c-0.8,2.8-1.7,5.4-2.4,8.3c-0.5,0.3-1.3,0.5-1.9,0.7c-0.3,0-1.9-0.5-2.3-0.7c-0.4-4.9-5.4-3.6-8.7-4.1c-3.7-0.7-6.9-2.4-10.7-2  c-4.5,0.4-4.4,0.8-8.5-1.1c-3-1.3-5.8-1.2-9.5-1.2c-5.8,0-16.8,2.9-21.3-0.8c-1.9-1.6-1.1-3.3-3.7-4.2c-1.7-0.5-3.4,0.5-5,0.8  c-3.2,0.5-5,0.9-7.3-2.1c-1.6,1.1-2.8,0.4-4.4,0.1c-1.3-0.3-6-1.5-7.2-2.1c-1.9-1.2-3-4.2-5-5.7c-5.2-4.1-9.5-3.2-15.5-5  c-6.8-2-14-1.3-20.1-5c-5.4-3.4-10.1-7.8-16.4-10.1s-13.4-3.6-20-5.3c-7-2-13.4-1.3-20.8-2c-6.2-0.5-12.1-2.3-17.9-4.5  c-6.5-2.5-11.9-3.7-18.7-4.8c-6.1-1.1-11.9-2.5-17.9-3.6c-5.8-1.1-12.2-0.7-17.8-3c-10.9-4.6-22.7-9.9-34.6-12.7  c-6.4-1.5-12.3-3.2-18.7-4.2c-5.8-1.1-11.7-1.2-17.2-3.4c-5.8-2.3-11.3-5.3-17.1-7.6c-4.5-1.7-11.8-4.4-14.4-6.2l4.2-3.6  C170.1,508.6,174,506.9,175.7,505.7z M1561.9,988.2c-17.4,1.5-37.8-3.8-52.7,4.9c-11.8,6.9-20.7,23.7-33,7.4  c-5.6,4.9-11.3,9.9-17.2,14.2c-4.8,3.4-16.4,6.8-17.5,12.3c-10.6,2.1-27.6-11.5-37-15.9c-20.3-9.5-41.9-17-60.2-29.7  c-15-10.5-28.9-16-45.8-22.5c-15.5-6-27.8-17-44.8-19.3c-17-2.4-35.9-0.1-52.3-4.2c-10.5-2.6-17.9-10.2-27.6-14  c-9.7-3.8-21.5,6.6-30.1,11.8c-9.9,6-14.6,16.3-24.2,21.2c-11.3,5.6-29.7-13.9-54.5,2.9c-12.3,8.3-129.5,63.3-141.9,71.7  c-6.6,4.5-119.9,34.3-127.9,34.4c-5.2,11.8-26.2,25.8-49.8,25.8c-24.1,0-61.6,48.5-91.6,45.6c1.1-2.9,3-5.6,5.7-7.3  c-4.2,2-9.3,3.2-11.9,7.3c-16-7-30.9-17.8-46.6-26c-16.7-8.7-34.3-15.2-51.9-22.1c-16.7-6.6-34.1-9.8-50.2-17.9  c-14.8-7.4-32.1-14.8-47.2-20.1c-10.9-3.8-21.1-6.1-33-6.8c-12.1-0.7-23.3-4-35.8-2.9c-8.7,0.7-9.8,1.9-16.8-2.8  c-4.8-3.2-9.3-6.5-14.7-8.6c-10.2-4-21.3-8.1-31.7-12.9c-9.3-4.2-18-9.1-27.2-13.2c-10.6-4.8-20.4-13.6-31.5-17  c-9.9-3-19.5-6.4-28.8-9.9c-8.9-3.4-17.1-10.9-27-13.2c-2.9-8.9,8.7-10.9,9.9-19.2c-25.2,8.9-48.9,9.4-73.3-3.8  c-11.1-6-22.9-10.3-34.3-15.4c-9.1-4.1-25.4-6.1-32.3-12.9c9-7.8,14.3-19.9,22.3-28.8c9.1-10.2,15-23.7,25.7-31.8  c10.7-8.1,21.7-18.3,33-25.2c10.5-6.4,23.1-7,32.5-15.8c-17.4,0.4-27-16.8-40-25.7c-12.1-8.3-22-20.7-35.4-27.6  c-17.1-8.7-36.6-13.9-51.7-25.4c-14.3-10.9-27.8-19.2-44.4-24.8c0,0-8.9-143.9-9.5-144.8c20.5-0.7,57,9.5,75.4,17.6  c22.9,10.1,46.9,14.4,70.4,22.7c47,16.3,94.9,40.3,140.3,60.2c12.5,5.4,25.2,9.9,37.2,16.2c9.8,5,18.9,11,28.8,15.4  c8.2,3.7,18,8.7,25.7,8.6c12.3-0.3,24.5-4,37.4-2.9c24.9,2,50.4-4.4,75.9-4.2c12.9,0,24.8-1.5,37.6-1.5c13.1,0,26.1,1.3,38.4-2.9  c4.5-1.5,10.9-5,15.6-4.6c6.4,0.5,2.4,2.1,7.2,4.4c3.2,1.5,5.3,0.7,8.6,1.6c10.6,3,14.7,12.1,21.9,19.9c7-3.8,21.5-1.6,29.7-2.7  c9.3-1.2,22.7-0.4,31.3-4.1c1.6,6.9,23.7,7.3,30.3,9.4c11.5,3.8,22,1.6,34.1,3.6c10.5,1.7,21.2,5.8,31.8,6.8  c14,1.2,27.8,0.3,41.6,2.5c22.1,3.7,39.9,17.4,62.5,20.7c20.8,3,41.2,8.9,62.1,12.6c6.4,1.2,5.3,1.9,11-1.7  c5.4-3.4,10.7-9.7,16.2-13.6c20.3-15.2,43.2-27.7,62.9-43.7c16.6-13.4,41.9-23.2,63.1-19.7c24.4,4.1,51.7,6.9,74.6,17.5  c10.5,4.9,20.5,12.2,31.5,15.1c12.1,3.3,23.6,4.4,35.5,9.9c26.2,12.2,46.5,32.5,73.4,43.7c22.3,9.4,46.5,16.8,66.8,29.7  c-0.1-0.1-0.1-0.1-0.3-0.1c0.1,0.1,0.3,0.1,0.4,0.3c0.1,0.1,0.3,0.1,0.4,0.3c2.9,1.7,8.7,2.6,11.9,3.6c5.6,1.7,10.7,4,16.8,4.6  c6.5,0.7,11.3-1.5,17.2,0.1c5.4,1.3,7.3,5.7,12.7,7.3c1.6,4.9,1.9,9.4,4.6,14c3.8,6.5,6,5.8,14.3,5.8c15.5-0.1,29.2,6.1,44.1,8.6  c6.6,1.2,15.6-0.7,21.9,1.3c3.7,1.2,7.4,5.6,11.3,7.3c6.4,2.6,14.2,3,20.1,6.1c5.8,2.9,8.1,7.6,12.3,12.7c-1.9,0.4-1.5-0.8-2.4-1.6  l5.7,78.8C1577.8,957.6,1560.6,973.7,1561.9,988.2z"/>
<path fill="#FD8C25" stroke="" stroke-width="2" stroke-miterlimit="10" d="M382.4,838.1c6.6-4.5,13.1-8.7,20.3-11.9  c10.7-4.8,16.8-11.8,23.2-20.4c4.9-6.6,14.2-9.7,21.7-12.5c3.7-1.3,7.8-1.6,11.3-3c4.4-1.9,8.6-6,12.7-8.3c15-9,28.8-19.7,44-28.5  c9.7-5.6,17.8-13.2,27.7-18.5c10.6-5.7,21.2-7.8,32.6-11.4c9.1-2.9,20.3-7.4,30.3-7.4c-17.1,0-30.1,4.1-45.8,9.4  c-7.4,2.5-15.1,3.2-22.7,5.2c-8,2.1-15.6,7.4-22.9,11.5c-3.4,2-7.2,4.2-10.3,6.8c-3.8,3-5.8,6.9-9,10.1c-5.4,5.4-13,5.2-18.7,11  c-6.6,6.9-11.3,10.6-20.3,13.2c-7.4,2.1-13.6,7-20.8,10.1c-3.8,1.7-9.3,5.4-13.4,4.8c-0.1-0.5-0.3-1.1-0.3-1.6  c-7-0.5-10.9-7.7-15.1-12.6c-5.3-6.2-11.5-10.6-16.6-17c-8.2-10.3-17.4-18.3-29.4-24.8c-12.9-6.9-22.7-17.4-34.6-25.8  c-2.5-1.9-5.2-4-7.7-3.3c-1.9,0.4-5.4,4.1-7.2,5.3c-5.6,4-10.2,7.7-16.4,10.3c-16.2,6.8-30.9,16-46.1,24.6  c-13,7.3-28.9,16.2-37.9,28.9l-1.9,8.6c3-4.5,9.9-7.3,14.3-10.5c6.1-4.5,5.6-6.9,8.7-12.5c2.7-4.5,10.3-7,14.8-9.3  c6.9-3.4,12.7-6.9,19.2-11c8.3-5.4,17.8-9.7,26.1-15.2c8.6-5.8,20.7-8,28-15.9c3.7,2.1,6.6,6.9,10.3,9.7c3.6,2.7,3.8,3.8,5.7,7.4  c2.1,4,2.5,3.2,5.7,6c5.2,4.4,8.9,10.2,14.3,14.2c5.2,3.7,11.9,5.2,17.2,8.6c9.9,6.4,17.6,16,25.6,24.9c3.6,4,6.8,7.2,8.7,11.5  c1.7,4,2.8,9,5.7,12.2c-4.4,1.3-7.9,7.6-11.4,10.5c-5.2,4.5-8.9,4.6-15.2,6.8c-5.2,1.7-10.5,4-15.1,7c-4,2.5-3.7,4.5-6.9,7.4  c-2,1.9-5.6,2.1-7.7,4c-1.9,1.6-2.8,4.1-4.5,6c-7.3,8-14.2,20.5-24,25.8c-2.1,1.2-4.8,0.8-6.6,1.9c-3.2,1.6-5.2,5.3-7.8,7.4  c-4.9,4-11,6.1-15.9,10.3c6.6,1.1,18.8-7.3,24.5-10.6c8.6-5,13.4-9.7,18.8-17.9c4.5-6.6,14.8-11.4,21.3-16  C369.4,848.2,375.5,842.9,382.4,838.1z"/>
<path fill="#FD8C25" stroke="" stroke-width="2" stroke-miterlimit="10" d="M629.1,790.9c13.4-8.9,24.1-21.6,38.8-28.8  c13.6-6.6,28.8-10.9,42.1-15.4c1.2,5.3-1.7,11.9-2.7,17c-1.1,5.8-2.7,11.5-3.6,17.2c-2,12.7-11.3,19.1-17.6,29.4  c-7.2,11.3-8.9,23.7-17.9,33.7c-3.8,4.2-6,9.8-8.7,14.3c-3.4,5.4-8.6,7.7-12.9,12.3c3,5.2,22.4-6.2,27.4-8.3  c5.8-2.5,7.8-4.2,12.5-7.4c4.4-3.2,10.3-3.7,15.2-6c17.8-8.2,33.7-21.1,52.3-26.9c-0.1-4.5,9-7.6,12.6-8.6c11.9-3.4,25.6-5,38-7.2  c13-2.4,24.5-6.8,36.4-10.7c14.2-4.8,30.1-6,45-8.6c7-1.3,11.9-3.6,18.3-6.4c4.5-2,11.5-2.8,14-7.7c-5.3,0.9-36.2,10.7-34.5,0  c-6.6-3.4-15.4,1.7-22.7,0.7c0.4-0.4,1.2-2,1.7-2.5c-18.4-2-36-4.4-55-4c8.9-4.9-8.7-6.1-10.9-7.4c-4.1-2.5-4-4.5-8.6-6  c-5.2-1.6-10.6-1.5-16-2c-7-0.7-15.9-0.3-22.3-2.9c-10.2-4.1,3.3-10.1-0.9-16.3c15.8-7.3-8.7-8.6-14.7-8.6c-5.8,0-11.3,0-17-0.9  c-4.6-0.8-8.7-2.1-13.5-1.9c-7.7,0.4-15.4,1.2-20.1,7.4c-3.4,4.5-6.9,8.5-11.9,11.9c-11,7.6-21.2,15.8-32.1,24.4  c-6.1,4.9-10.9,10.5-16.3,16.3c-7.3,7.9-17.9,11.1-26.5,17.4c-14.3,10.5-29.1,20.9-44.1,30.3c-14.8,9.1-31,17.5-45.7,27.8  c-17,11.8-35.4,21.9-52.5,33.7c-17.1,11.7-32.2,24.2-48.5,36.6c-5.2,4-10.6,8.1-15.6,12.5c-3.8,3.4-11,12.1-16,12.1  c0.5-3,3.6-6.2,4.6-9.4c1.2-3.4,2-7,3.2-10.5c0.9-3,4.8-18.2,10.1-11.7c3.4-5.8,11.9-13.8,11.9-20.8c0.5-0.4,1.1-0.4,1.6,0  c0.1,2.3,1.1,2.3,1.9,3.6c3.2-4.1,2.6-14.4,9.7-14c0,2.8,0.5,6,2.8,7.4c4-5.7,0.8-17.9,1.3-24.6c9.9-2.9,9,15.6,11.1,19.9  c3.8-12.5,1.9-24.4,3.3-36.8c0.7,1.1,1.9,1.7,2.5,2.5c0.1-2.7,1.3-5,2.3-7.4c4.4-1.3,7.2,3.7,9.1,6.5c2.3-5,0.8-15,4.2-18.9  c3.6,2,4.8-2.8,4.6-5.7c9.1-0.4,6.5-4.5,10.6-11.7c1.9-3.3,5.4-7.8,8.6-10.2c4.6-3.6,9.4-0.5,13-6c2.9-4.5,2.9-9,7.6-12.6  c1.7-1.3,4.2-2.1,6-3.6c2-1.6,3-4.8,4.8-6.6c2.9-3.2,7.6-5.6,11.4-9.5c3.7-3.8,8.2-6.6,13.4-8.3c4.5-1.5,13.9-0.3,15.2-5.8  c4.5,2.6,10.2,6.1,13.4,0.9c1.2-2,0-5.6,1.1-7.7c1.5-2.7,4-2.7,4.8-5.6c8.6-0.4,19.5-11.7,24.6-17.2c-5.3-0.8-13.2,6.2-18,8.3  c-6.9,3.2-13.8,6.6-20.1,11.3c-11.1,8.2-23.9,13-35.1,20.5c-12.7,8.5-25.3,16.7-37.5,25.8c-11.8,8.9-23.1,21.9-32.7,33.1  c-20.4,24-41.5,47.2-59.2,72.7c-9.1,13.1-15.5,26.5-22,41.1c-5.3,12.2-10.9,26.5-22.7,34.5l0.9,4.8c5.3,0.7,9.5-7.4,14.2-9.5  c3-1.5,5.8-1.1,8.7-2c5-1.6,9-5.8,12.7-9.4c11.9-11.5,23.2-24.8,36.8-34.2c12.9-8.9,27.7-14,40.5-23.3c11.3-8.1,21.5-17.9,32.3-26.5  C534.1,840.2,584.9,820.2,629.1,790.9z"/>
<path fill="#FD8C25" stroke="" stroke-width="2" stroke-miterlimit="10" d="M942.2,801.9c-5.3,5-13.6,5.2-19.7,8.1  c-4.2,2-6,4.9-9.5,7.2c-3.8,2.4-8.5,3-12.5,5c-5.4,2.8-9.8,7.7-14.4,11.4c-6,4.8-12.1,8.2-19.2,11.3c-9.9,4.2-18.4,11.9-28.6,14.8  c-4.4,1.2-8.9,0.7-13.1,2.7c-4.2,1.9-7.3,5-11.7,6.9c-10.6,4.8-21.1,4.4-31.3,9.5c-10.9,5.4-23.5,6-34.6,6.6  c-7.6,0.5-16.2,7.6-23.8,10.1c-10.1,3.3-18.3,4.1-27.3,9.5c-7.2,4.2-14.8,7.9-22.1,11.8c-4.1,2.3-11.4,4-14.3,7.7  c-2.8,3.4-2.3,5.6-6,8.6c-9.9,8-21.3,9.4-30.9,17.8c-2.5,2.3-4.9,5.8-8.1,7.2c-1.9,0.8-3.7,0.3-5.7,0.9c-6.6,2.3-9.8,7.6-17.2,7.6  c-4.4,0-6.8-0.9-11.5,0.8c-3.4,1.2-6.8,3.8-10.5,4c-9.9,0.4-13.5-0.5-23.3,4.8c-6.8,3.7-13.6,5.6-19.9,10.1  c-2.9,2.1-13,9.4-13.2,12.6c0.5,0.3,1.2,0.4,1.7,0.1l-36.3,39.2c4,1.2,7.9-8.1,11.4-11.5c4.5-4.2,10.2-7.3,15.1-10.7  c5.6-4,9.5-6,13.2-11.4c2.3-3.3,4.2-6.2,8-8.2c3.4-1.9,6.2-1.1,9.5-2.3c6.2-2.4,12.1-8.3,18.3-11c6.6-2.8,10.9-2,17.9-3  c3.7-0.7,5.8-2.9,9.5-4.1c3.6-1.1,7,0,10.6-0.7c6.4-1.2,11.8-7.2,18.2-8.6c4-0.9,7.7,1.1,11.3-1.2c1.6-1.1,4.4-5,5.7-6.6  c6.4-7.4,9.3-11.5,18.4-15.4c4-1.6,9-2.6,12.5-5.2c2.7-2,3.8-5.3,6.6-7.2c2.8-2,6.8-2.3,9.4-4.4c3.2-2.5,4.1-4.6,7.8-6.8  c6.4-3.4,13.4-2.4,20-5c8-3.2,15.6-6,24-8.6c5.2-1.7,7.3-3,11.7-6.2c2.8-2,5.7-3.4,9.3-2.9c4.8,0.8,19.5,7.3,20.3-2.9  c7.2-3,14.6-6.2,22-8.5c3.7-1.1,7.8,0.1,10.6-0.9c2.1-0.8,3-4.1,5.4-4.9c3.4-1.1,5.8,1.5,9.4,0.5c1.9-0.4,5.8-3.4,7.8-4.4  c5.4-2.5,12.7-8.2,18.9-7.7c1.3,4.5,1.2,8.1-0.5,12.5c-6.6,16.6-18,30.9-30.6,42.9c-3.3,3.2-9.1,6.6-11.8,10.2  c-2.7,3.6-2.4,7.3-5.7,10.5c-6.4,6.6-15.9,11.5-21.1,19.1c-2.3,3.4-2.7,8.3-4.9,11.5c-3.6,4.8-12.6,8.7-17.8,11.5  c-8.7,4.6-13.1,9.9-19.3,17.2c-5.7,6.6-12.6,10.9-18.4,17c-4.8,5.2-14.4,9.8-17.1,16c8.3-3.2,17-9.9,24.8-14.2  c5.4-2.9,21.9-12.6,27.7-8.5c2.4-4.6,2.3-8.7,6.6-12.6c4-3.4,8.9-5.4,12.7-9.3c4.2-4.2,3.6-9.4,6.6-14.3c3.2-5.2,8.5-6.5,13.4-9.5  c7.7-4.9,11-13.1,17.9-18.4c3.4-2.6,7-3.6,9.8-7.3c3.3-4.5,3.4-10.3,5.4-15.4c2.3-5.6,5.6-6.5,9.8-10.5c4.1-3.8,6.1-8.6,8.3-13.6  c3.7-8.1,6.6-16,9.9-24c1.3-3.2,2.3-4.8,2-7.4c-0.1-1.7-2.3-2.6-2.3-4.5c0.3-4.2,4.8-4.5,7.7-6c8.3-4,14-11.8,22.7-16  c8.7-4.4,20.8-7.2,28.8-12.6c3.7-2.5,6-7.4,9.8-10.3c3.3-2.6,7-4.4,10.5-6.6c6.2-4,13.8-9.1,18.9-14.6c4.4-4.6,7.2-10.2,12.6-13.6  c-3,1.7-5.6,4.5-8.5,6.5C946.3,796.4,945.5,798.8,942.2,801.9z"/>
<path fill="#FD8C25" stroke="" stroke-width="2" stroke-miterlimit="10" d="M1548.3,943.4c-6.9-2.7-11.8-7-18.2-10.7  c-7.6-4.5-13.9-11.3-22-14.3c-8.3-3.2-17.1-7.4-24.8-12.3c-7.7-4.9-17.9-12.9-21.7-20.8c-4.4-9.1-7.6-13.8-15.5-20.3  c-13.1-10.6-24.2-25-39.1-34.2c-17.9-11-36.7-19.9-54.2-31.8c-11.9-8.1-23.2-13.4-36.6-18.7c-6.8-2.6-12.9-5-19.1-8.6  c-3.7-2.3-8.7-6.5-13.1-6.8c3.4,2.1,5.8,5.2,9,7.4c3.3,2.4,7,3.2,10.7,5c9.9,4.8,19.1,12.3,28.9,17.9c10.2,6,20.7,9.7,30.3,16.4  c7.8,5.4,15.9,9.9,23.9,15.1c3.8,2.4,8.1,4.2,11.7,6.8c3.4,2.4,6.1,5.8,9.3,8.6c5.7,4.8,10.7,10.1,16.3,15.1  c8.3,7.4,27.6,19.2,25.8,32.3c-6.4-2.4-12.5-6.5-19.2-9.1c-7.4-3-14.3-8.3-21.3-11.7c4.2,2.5,8.1,6.9,11.9,9.5  c4.1,2.8,8.7,4.5,12.6,7.7c1.9,1.5,3.4,4,5.2,5.3c4,2.9,7.8,3,11.8,6.4c2.5,2.3,3.6,3.4,6.6,5c2.3,1.2,4.8,1.1,6.1,2.8  c-2.9-0.7-6.4-0.3-9-1.1c-3.8-1.1-6.8-3.3-10.5-4.6c-9.3-3.2-18.2-7.8-27.7-10.5c-8.6-2.4-19.2-4.6-26.8-8.7c-3-1.7-4.8-4.6-8.3-5.8  c-2-0.7-4.9-0.9-7-1.6c-4.5-1.5-9.1-3-13.4-4.9c-9.1-4.1-17.8-8.7-26.5-13.6c-4.2-2.4-7-6-10.5-8.6c-4.1-3.2-9-3.3-13.6-5.3  c-15.2-6.5-28.1-20-43.3-26.1c4.5,5,11.5,6.5,16.8,10.5c7,5.3,11.9,13.2,18.2,18.9c7.2,6.6,20,10.6,28.6,15.2  c5.2,2.8,11.1,3.7,16.3,6.6c4.8,2.7,8.7,6.4,13.6,8.9c11.9,6.4,26,13.6,38.7,17.9c12.1,4,18.8,9.4,28.9,16.6  c11.4,8.1,25.7,14.7,38.6,20.3c10.1,4.4,19.9,7.9,30.3,10.1c19.5,4,35.5,13.6,55.4,13.6h11.5C1561.1,948.1,1553,945.3,1548.3,943.4z  "/>
</svg>
